<svg width="286" height="60" viewBox="0 0 286 60" fill="none" xmlns="http://www.w3.org/2000/svg">
<rect width="60" height="60" rx="4" fill="black"/>
<g clip-path="url(#clip0_233_147)">
<path d="M16.2504 12.5H22.2513C22.4458 12.5414 22.6104 12.6971 22.6537 12.8923C22.7029 13.0732 22.6391 13.2553 22.6003 13.4313C22.2412 14.9781 21.8779 16.5239 21.5214 18.0714C21.481 18.0939 21.4406 18.116 21.3992 18.1366L21.3744 18.1473C21.3692 18.1496 21.3588 18.1542 21.3539 18.1564C21.2822 18.1877 21.2112 18.2193 21.1398 18.2509C21.1281 18.2565 21.1046 18.2679 21.0926 18.2738L21.0779 18.2803C21.0753 18.2816 21.0701 18.2839 21.0675 18.2848C20.9935 18.3158 20.9195 18.3467 20.8469 18.3806C20.8449 18.3816 20.8407 18.3836 20.8387 18.3845L20.7833 18.4103C20.781 18.4116 20.7758 18.4142 20.7732 18.4152L20.7156 18.4425C20.7038 18.4491 20.6804 18.4618 20.6686 18.4683L20.6536 18.4751C20.6514 18.4764 20.6461 18.4787 20.6439 18.4797C20.5474 18.5201 20.4536 18.5647 20.3591 18.6084C20.3565 18.6097 20.3513 18.612 20.3486 18.6133L20.3343 18.6205C20.3222 18.6263 20.2985 18.6381 20.2867 18.6439L20.2278 18.6713C20.2251 18.6723 20.2203 18.6749 20.2177 18.6759L20.1619 18.7022C20.1593 18.7035 20.1538 18.7062 20.1509 18.7075L20.0971 18.7332C20.0945 18.7345 20.0896 18.7368 20.087 18.7381L20.0322 18.7638C20.0296 18.7651 20.0241 18.7677 20.0212 18.769L19.9821 18.787C19.9651 18.7958 19.9309 18.8137 19.9136 18.8225C19.8794 18.8371 19.8455 18.8521 19.812 18.8678C19.8071 18.8704 19.797 18.8749 19.7921 18.8776C19.753 18.8961 19.7139 18.915 19.6751 18.9343C19.6728 18.9352 19.6689 18.9372 19.6666 18.9385C19.6051 18.9717 19.5425 19.0027 19.4793 19.0323C19.4767 19.0336 19.4718 19.0362 19.4695 19.0372L19.4552 19.0447C19.4438 19.0509 19.4213 19.0636 19.4102 19.0701C19.3307 19.1086 19.2522 19.1487 19.1733 19.1874C19.1313 19.1913 19.0847 19.2031 19.0654 19.2451C18.927 19.309 18.7924 19.381 18.6578 19.4527C18.6467 19.4585 18.6249 19.4709 18.6141 19.4771L18.6008 19.4853C18.5978 19.4872 18.5917 19.4908 18.5887 19.4924L18.575 19.5006C18.563 19.5061 18.5392 19.5169 18.5271 19.5221L18.4701 19.5521C18.4678 19.5534 18.4626 19.556 18.46 19.5576L18.4076 19.5856C18.4053 19.5869 18.401 19.5892 18.3988 19.5905C18.2831 19.6528 18.1674 19.7143 18.0517 19.7766C18.0465 19.7792 18.0364 19.7847 18.0312 19.7873C17.8767 19.8685 17.7259 19.9555 17.5734 20.0395C17.3502 20.1568 17.1328 20.2852 16.9181 20.4162C17.1403 20.326 17.3518 20.21 17.5636 20.0975C17.7953 19.978 18.0318 19.8681 18.2661 19.7534C18.2681 19.7521 18.2726 19.7502 18.2749 19.7489L18.3303 19.7218C18.3333 19.7205 18.3391 19.7179 18.3421 19.7163L18.3971 19.6899C18.3994 19.6886 18.4046 19.6863 18.4072 19.685L18.4613 19.6593C18.4636 19.6583 18.4682 19.656 18.4704 19.655C18.5845 19.6016 18.6995 19.5498 18.8136 19.4963C18.8188 19.4941 18.8289 19.4892 18.8338 19.4869C18.9485 19.4341 19.0632 19.381 19.1782 19.3285C19.1805 19.3276 19.1847 19.3256 19.187 19.3246L19.2421 19.2999C19.2447 19.2986 19.2499 19.2963 19.2525 19.2953L19.2932 19.2774C19.3108 19.2689 19.3457 19.2523 19.3629 19.2441C19.3985 19.2298 19.4333 19.2151 19.4685 19.2001C19.4718 19.1985 19.4783 19.1956 19.4816 19.1943C19.5167 19.1786 19.5523 19.163 19.5878 19.148C19.6047 19.1395 19.6386 19.1229 19.6556 19.1148C19.7709 19.0708 19.882 19.0167 19.9961 18.9691C20.0072 18.9633 20.03 18.9512 20.0414 18.9453L20.056 18.9395C20.0583 18.9382 20.0635 18.9362 20.0661 18.9352C20.0873 18.9271 20.1297 18.9111 20.1509 18.903C20.1538 18.902 20.1593 18.8997 20.1623 18.8984C20.1984 18.8834 20.2349 18.8681 20.2714 18.8528C20.289 18.845 20.3236 18.829 20.3408 18.8212C20.3949 18.8013 20.448 18.7795 20.5015 18.7576C20.5187 18.7495 20.5536 18.7329 20.5712 18.7247L20.611 18.711C20.6132 18.7101 20.6178 18.7084 20.6204 18.7078L20.6608 18.6928C20.6784 18.6837 20.7129 18.6657 20.7302 18.6566L20.7765 18.6439C20.7882 18.6384 20.8117 18.627 20.8237 18.6214L20.8381 18.6139C20.841 18.6123 20.8465 18.6094 20.8495 18.6077L20.8612 18.6016C20.8863 18.5928 20.9365 18.5752 20.9616 18.5664L21.0026 18.5514C21.0049 18.5504 21.0101 18.5484 21.0127 18.5475L21.0551 18.5325C21.0717 18.5234 21.1053 18.5058 21.1222 18.4966L21.1512 18.4979C21.1678 18.4891 21.2014 18.4715 21.218 18.4627C21.2496 18.4523 21.2812 18.4416 21.3132 18.4311C21.3308 18.4227 21.3656 18.406 21.3829 18.3976L21.435 18.3793C21.438 18.4073 21.436 18.435 21.4295 18.4624C21.1499 19.6557 20.8729 20.8499 20.5947 22.0435C20.5823 22.1761 20.5445 22.3042 20.5178 22.4345C20.4777 22.6274 20.5269 22.8467 20.6768 22.9816C20.7944 23.0934 20.9616 23.1306 21.1196 23.1266C23.4009 23.1263 25.6822 23.127 27.9638 23.1263C28.099 23.1266 28.2411 23.1188 28.3682 23.1749C28.5327 23.2423 28.6523 23.4004 28.6797 23.5757C28.7158 23.7761 28.6328 23.9703 28.5963 24.1645C27.8475 27.3797 27.099 30.5948 26.3498 33.81C26.2785 34.1538 26.0041 34.4438 25.6669 34.5386C25.5124 34.5816 25.3505 34.5673 25.1921 34.5696C22.2441 34.5705 19.2965 34.5676 16.3488 34.5712C16.3404 34.4738 16.3452 34.376 16.3443 34.2786C17.1543 34.0974 17.9673 33.8243 18.6298 33.3088C19.1629 32.9015 19.562 32.3179 19.7285 31.6665C20.274 29.3194 20.8221 26.9727 21.3676 24.6256C21.4204 24.4024 21.3412 24.141 21.1401 24.0175C20.9902 23.9178 20.8039 23.9256 20.6315 23.9273C18.9921 23.9273 17.3524 23.9279 15.7131 23.9273C15.66 23.9308 15.6033 23.9168 15.5531 23.9364C14.6205 24.7403 13.7342 25.6002 12.9339 26.5367C12.1375 27.4582 11.4255 28.4572 10.8579 29.5361C10.1932 30.8037 9.72949 32.2065 9.71189 33.648C9.68583 35.0241 10.1238 36.4025 10.9436 37.5084C11.68 38.5153 12.6846 39.2996 13.7726 39.8959C14.9496 40.5326 16.2243 40.9774 17.5264 41.2785C17.5235 41.3036 17.518 41.3531 17.5154 41.3782C17.3951 41.8719 17.284 42.3675 17.1677 42.8621C16.313 42.7468 15.4667 42.5689 14.6345 42.3437C13.4778 42.0224 12.3454 41.5913 11.306 40.9862C10.2421 40.3687 9.27069 39.5564 8.58282 38.5283C7.79719 37.3738 7.43061 35.9512 7.53163 34.5604C7.62156 33.1537 8.11913 31.8024 8.79593 30.5762C9.42352 29.4439 10.2069 28.4035 11.0717 27.4419C12.2408 26.1398 13.5648 24.9846 14.9571 23.9279C14.5488 23.9256 14.1402 23.9299 13.7319 23.926C13.5325 23.9256 13.3311 23.8168 13.2441 23.6337C13.1627 23.476 13.1747 23.2902 13.2216 23.1244C13.9913 19.8228 14.759 16.5203 15.5293 13.2188C15.6098 12.8679 15.9044 12.587 16.2504 12.5Z" fill="white"/>
<path d="M45.6868 35.2405C45.8611 35.1372 46.0221 35.0085 46.2062 34.9225C45.635 35.3558 45.0331 35.7488 44.4319 36.1395C41.2041 38.1963 37.6891 39.7845 34.0523 40.9663C30.8739 41.9928 27.588 42.7044 24.2592 43.0019C24.2634 42.9759 24.2719 42.924 24.2758 42.8983C24.3595 42.5584 24.4351 42.217 24.5159 41.8768C26.4111 41.8002 28.2997 41.5806 30.1642 41.2319C33.019 40.6991 35.8187 39.8819 38.5236 38.8261C41.0125 37.8496 43.4218 36.6632 45.6868 35.2405Z" fill="white"/>
<path d="M33.0979 12.5H42.3028C42.3019 12.5932 42.3067 12.6864 42.2973 12.7793C41.7831 12.8923 41.2764 13.051 40.8033 13.284C40.334 13.5095 39.9029 13.8252 39.5722 14.2296C41.4618 14.2762 43.355 14.4835 45.1863 14.9625C46.5448 15.3219 47.8752 15.8308 49.0662 16.5845C50.1053 17.2411 51.0363 18.103 51.6583 19.1715C52.1373 19.9796 52.4163 20.8982 52.5 21.8324V22.8536C52.4045 24.1358 51.9809 25.3744 51.3889 26.5093C50.7743 27.6886 49.9828 28.7678 49.1073 29.7655C47.4532 31.6349 45.5004 33.2205 43.4283 34.6038C43.3827 34.6344 43.3381 34.6683 43.2833 34.6784C43.2957 34.6559 43.3126 34.637 43.3335 34.622C44.822 33.4991 46.2225 32.2511 47.4483 30.8438C48.3128 29.8447 49.0919 28.7645 49.6948 27.5866C50.2992 26.4037 50.7258 25.1095 50.7834 23.7751C50.8216 22.9012 50.6928 22.0168 50.3784 21.1992C49.9535 20.063 49.1832 19.077 48.2496 18.3119C47.2506 17.4871 46.0807 16.8925 44.8692 16.448C42.9901 15.7683 41.0011 15.4385 39.0124 15.3033C38.6061 17.0463 38.2007 18.7896 37.7944 20.5329C37.6458 21.1878 37.478 21.8392 37.3564 22.4994C37.3297 22.7118 37.4248 22.9432 37.6171 23.0491C37.7611 23.1361 37.9351 23.1273 38.0974 23.1266C40.378 23.1263 42.6587 23.1263 44.9393 23.1266C45.1025 23.1224 45.2749 23.171 45.3886 23.2938C45.5366 23.4453 45.5656 23.6793 45.5112 23.8774C44.7474 27.1578 43.9832 30.4381 43.2195 33.7184C43.1588 34.1805 42.7444 34.5819 42.2686 34.5696C40.3898 34.5696 38.5112 34.5702 36.6327 34.5692C36.4668 34.5722 36.2935 34.5148 36.1834 34.3864C36.0507 34.2388 36.0234 34.0228 36.0706 33.8357C36.7855 30.7659 37.5011 27.6964 38.2157 24.6265C38.2685 24.4027 38.189 24.1404 37.9869 24.0169C37.8273 23.911 37.6288 23.9276 37.447 23.9276C35.1765 23.9276 32.906 23.9276 30.6354 23.9273C30.4728 23.9318 30.3017 23.8862 30.1867 23.766C30.0375 23.6187 30.0026 23.3883 30.0541 23.1912C30.6416 20.6678 31.2301 18.1447 31.817 15.621C28.2645 16.1316 24.7773 17.0746 21.435 18.3793L21.3829 18.3976C21.3656 18.406 21.3308 18.4227 21.3132 18.4311C21.2812 18.4416 21.2496 18.4523 21.218 18.4627L21.1893 18.4566C21.1796 18.467 21.1607 18.4875 21.1512 18.4979L21.1222 18.4966C21.1053 18.5058 21.0717 18.5234 21.0551 18.5325L21.0127 18.5475C21.0101 18.5484 21.0049 18.5504 21.0026 18.5514L20.9616 18.5664C20.9365 18.5752 20.8863 18.5928 20.8612 18.6016L20.8495 18.6077C20.8465 18.6094 20.841 18.6123 20.8381 18.6139L20.8237 18.6214C20.8117 18.627 20.7882 18.6384 20.7765 18.6439L20.7302 18.6566C20.7129 18.6658 20.6784 18.6837 20.6608 18.6928L20.6204 18.7078C20.6178 18.7084 20.6132 18.7101 20.6109 18.711L20.5712 18.7247C20.5536 18.7329 20.5187 18.7495 20.5015 18.7576C20.448 18.7795 20.3949 18.8013 20.3408 18.8212L20.3125 18.814C20.3024 18.8235 20.2818 18.843 20.2714 18.8528C20.2349 18.8681 20.1984 18.8834 20.1622 18.8984C20.1593 18.8997 20.1538 18.902 20.1508 18.903C20.1297 18.9111 20.0873 18.9271 20.0661 18.9352C20.0635 18.9362 20.0583 18.9382 20.056 18.9395L20.0414 18.9453C20.03 18.9512 20.0071 18.9633 19.9961 18.9691C19.882 19.0167 19.7709 19.0708 19.6556 19.1148L19.6272 19.1083C19.6171 19.118 19.5975 19.1379 19.5878 19.148C19.5523 19.163 19.5167 19.1786 19.4815 19.1943C19.4783 19.1956 19.4718 19.1985 19.4685 19.2001C19.4333 19.2151 19.3985 19.2298 19.3629 19.2441L19.3346 19.2376C19.3242 19.2474 19.3036 19.2673 19.2932 19.2774L19.2525 19.2953C19.2499 19.2963 19.2447 19.2986 19.242 19.2999L19.187 19.3246C19.1847 19.3256 19.1805 19.3276 19.1782 19.3285C19.0632 19.381 18.9485 19.4341 18.8338 19.4869C18.8289 19.4892 18.8188 19.4941 18.8136 19.4963C18.6995 19.5498 18.5845 19.6016 18.4704 19.655C18.4682 19.656 18.4636 19.6583 18.4613 19.6593L18.4072 19.685C18.4046 19.6863 18.3994 19.6886 18.3971 19.6899L18.342 19.7163C18.3391 19.7179 18.3332 19.7205 18.3303 19.7218L18.2749 19.7489C18.2726 19.7502 18.2681 19.7521 18.2661 19.7534C18.0318 19.8681 17.7953 19.978 17.5636 20.0975L17.5128 20.0998C17.5277 20.0848 17.5581 20.0549 17.5734 20.0395C17.7259 19.9555 17.8767 19.8685 18.0312 19.7873C18.0364 19.7847 18.0465 19.7792 18.0517 19.7766C18.1674 19.7143 18.2831 19.6528 18.3987 19.5905C18.401 19.5892 18.4053 19.5869 18.4075 19.5856L18.46 19.5576C18.4626 19.556 18.4678 19.5534 18.4701 19.5521L18.5271 19.5221C18.5392 19.5169 18.563 19.5061 18.575 19.5006L18.5887 19.4924C18.5916 19.4908 18.5978 19.4872 18.6008 19.4853L18.6141 19.4771C18.6249 19.4709 18.6467 19.4585 18.6578 19.4527C18.7924 19.381 18.9269 19.309 19.0654 19.2451C19.1143 19.2803 19.1632 19.2363 19.1733 19.1874C19.2521 19.1487 19.3307 19.1086 19.4102 19.0701C19.4213 19.0636 19.4437 19.0509 19.4552 19.0447L19.4695 19.0372C19.4718 19.0362 19.4767 19.0336 19.4793 19.0323C19.5425 19.0027 19.605 18.9717 19.6666 18.9385C19.6689 18.9372 19.6728 18.9352 19.6751 18.9343C19.7139 18.915 19.753 18.8961 19.7921 18.8776C19.797 18.8749 19.8071 18.8704 19.812 18.8678C19.8455 18.8521 19.8794 18.8371 19.9136 18.8225L19.9423 18.828C19.9524 18.8176 19.9723 18.7974 19.9821 18.787L20.0212 18.769C20.0241 18.7677 20.0296 18.7651 20.0322 18.7638L20.087 18.7381C20.0896 18.7368 20.0945 18.7345 20.0971 18.7332L20.1508 18.7075C20.1538 18.7062 20.1593 18.7035 20.1619 18.7022L20.2176 18.6759C20.2203 18.6749 20.2251 18.6723 20.2277 18.6713L20.2867 18.6439C20.2985 18.6381 20.3222 18.6263 20.3343 18.6205L20.3486 18.6133C20.3512 18.612 20.3565 18.6097 20.3591 18.6084C20.4536 18.5647 20.5474 18.5201 20.6439 18.4797C20.6461 18.4787 20.6514 18.4764 20.6536 18.4751L20.6686 18.4683C20.6804 18.4618 20.7038 18.4491 20.7155 18.4425L20.7732 18.4152C20.7758 18.4142 20.781 18.4116 20.7833 18.4103L20.8387 18.3845C20.8407 18.3836 20.8449 18.3816 20.8469 18.3806C20.9195 18.3467 20.9935 18.3158 21.0675 18.2848C21.0701 18.2839 21.0753 18.2816 21.0779 18.2803L21.0926 18.2738C21.1046 18.2679 21.1281 18.2565 21.1398 18.2509C21.2112 18.2193 21.2822 18.1877 21.3539 18.1564C21.3588 18.1542 21.3692 18.1496 21.3744 18.1473L21.3992 18.1366C24.7913 16.6523 28.3493 15.5421 31.9919 14.8722C32.1203 14.3209 32.2481 13.7695 32.3774 13.2185C32.4579 12.8679 32.7521 12.5873 33.0979 12.5Z" fill="white"/>
<path d="M21.1512 18.4979C21.1606 18.4875 21.1795 18.467 21.1893 18.4565L21.218 18.4627C21.2014 18.4715 21.1678 18.4891 21.1512 18.4979Z" fill="white"/>
<path d="M19.9136 18.8225C19.9309 18.8137 19.9651 18.7958 19.9821 18.787C19.9723 18.7974 19.9524 18.8176 19.9423 18.828L19.9136 18.8225Z" fill="white"/>
<path d="M20.2714 18.8528C20.2819 18.843 20.3024 18.8234 20.3125 18.814L20.3408 18.8212C20.3236 18.829 20.289 18.845 20.2714 18.8528Z" fill="white"/>
<path d="M19.5878 19.148C19.5975 19.1379 19.6171 19.118 19.6272 19.1082L19.6555 19.1148C19.6386 19.1229 19.6047 19.1395 19.5878 19.148Z" fill="white"/>
<path d="M19.0654 19.2451C19.0847 19.2031 19.1313 19.1913 19.1733 19.1874C19.1632 19.2363 19.1143 19.2803 19.0654 19.2451Z" fill="white"/>
<path d="M19.2932 19.2774C19.3036 19.2673 19.3242 19.2474 19.3346 19.2376L19.3629 19.2441C19.3457 19.2523 19.3108 19.2689 19.2932 19.2774Z" fill="white"/>
<path d="M16.9181 20.4162C17.1328 20.2852 17.3502 20.1568 17.5734 20.0395C17.5581 20.0548 17.5278 20.0848 17.5128 20.0998L17.5636 20.0975C17.3518 20.2099 17.1403 20.3259 16.9181 20.4162Z" fill="white"/>
<path d="M29.5138 26.0215C29.6008 25.5989 30.0026 25.2554 30.4389 25.2639C32.3175 25.2639 34.1957 25.2636 36.0742 25.2642C36.271 25.257 36.4776 25.3444 36.5802 25.5181C36.6734 25.6683 36.6786 25.8566 36.6347 26.0238C35.8624 29.3357 35.0921 32.6483 34.3198 35.9603C34.2292 36.3754 33.8343 36.7123 33.4045 36.7071C31.1776 36.7078 28.9508 36.7071 26.7239 36.7074C26.533 36.7101 26.3342 36.6895 26.1527 36.7622C25.8633 36.873 25.6268 37.1255 25.5531 37.4289C25.2064 38.9112 24.8636 40.3944 24.5159 41.8767C24.4351 42.2169 24.3595 42.5584 24.2758 42.8983C24.0014 44.1082 23.7137 45.3158 23.4348 46.525C23.368 46.9652 22.9743 47.3448 22.5214 47.3488C20.6325 47.3507 18.7435 47.3494 16.8545 47.3494C16.688 47.3523 16.514 47.2943 16.4039 47.165C16.2716 47.0167 16.2449 46.8 16.2931 46.6127C16.5847 45.3624 16.8738 44.1118 17.1677 42.8621C17.284 42.3675 17.3951 41.8719 17.5154 41.3782C17.8731 39.8086 18.2446 38.2422 18.6076 36.6739C18.6914 36.2522 19.0853 35.9049 19.5203 35.9065C21.8348 35.9052 24.1497 35.9065 26.4642 35.9058C26.8018 35.9124 27.1205 35.7055 27.2853 35.4167C27.3606 35.2893 27.3896 35.1424 27.4225 35C28.1199 32.0074 28.8165 29.0144 29.5138 26.0215Z" fill="white"/>
</g>
<path d="M92.9179 13.338L91.0558 17.3526C89.7508 16.9015 88.4553 16.5406 87.1693 16.27C85.877 15.9993 84.642 15.864 83.4643 15.864C81.4589 15.864 79.8611 16.255 78.6706 17.0368C77.4738 17.8187 76.8754 18.8111 76.8754 20.0139C76.8754 21.0364 77.3051 21.8543 78.1645 22.4678C79.0239 23.0873 80.0902 23.6436 81.3635 24.1368C82.6367 24.636 84.0213 25.1322 85.5173 25.6254C87.0133 26.1245 88.398 26.7651 89.6712 27.5469C90.9444 28.3288 92.0107 29.3122 92.8701 30.497C93.7296 31.6878 94.1593 33.2155 94.1593 35.08C94.1593 36.5234 93.8823 37.8225 93.3285 38.9773C92.7683 40.138 91.9407 41.1394 90.8457 41.9815C89.7444 42.8235 88.3757 43.47 86.7396 43.9211C85.0972 44.3722 83.1778 44.5977 80.9815 44.5977C79.5809 44.5977 78.3141 44.5075 77.1809 44.3271C76.0541 44.1466 75.0388 43.9121 74.1348 43.6234C73.2244 43.3407 72.4287 43.034 71.7475 42.7032C71.06 42.3724 70.4775 42.0717 70 41.801L72.2918 37.5158C73.565 38.2074 74.9815 38.7638 76.5411 39.1848C78.1008 39.6058 79.5173 39.8163 80.7905 39.8163C81.4271 39.8163 82.2165 39.7411 83.1587 39.5907C84.0945 39.4404 84.9921 39.1757 85.8515 38.7968C86.711 38.4239 87.4526 37.9217 88.0765 37.2902C88.694 36.6587 89.0027 35.8618 89.0027 34.8995C89.0027 34.0274 88.7577 33.2817 88.2675 32.6622C87.7709 32.0487 87.1184 31.5074 86.3099 31.0383C85.495 30.5752 84.572 30.1542 83.5407 29.7753C82.503 29.4024 81.443 29.0145 80.3608 28.6115C79.2786 28.2025 78.2186 27.7725 77.1809 27.3214C76.1496 26.8703 75.2297 26.32 74.4212 25.6705C73.6064 25.0269 72.9539 24.2751 72.4637 23.4151C71.9671 22.561 71.7188 21.5326 71.7188 20.3297C71.7188 19.217 71.9576 18.1194 72.435 17.0368C72.9125 15.9542 73.6287 14.9919 74.5836 14.1499C75.5385 13.3079 76.7258 12.6313 78.1454 12.1201C79.5587 11.6088 81.2043 11.3532 83.0823 11.3532C84.2282 11.3532 85.3518 11.4435 86.4531 11.6239C87.5481 11.8043 88.5412 12.0058 89.4325 12.2283C90.3237 12.4569 91.0813 12.6764 91.7051 12.8869C92.3227 13.0974 92.7269 13.2478 92.9179 13.338ZM100.08 44.2368V11.5337H105.284V44.2368H100.08ZM108.196 51.003V46.3569C110.425 46.2366 112.245 45.5149 113.659 44.1917C115.072 42.8686 115.778 40.8086 115.778 38.012V11.5337H121.03V38.1473C121.03 40.1621 120.712 41.9514 120.076 43.5151C119.439 45.0789 118.548 46.411 117.402 47.5117C116.262 48.6063 114.903 49.4483 113.324 50.0377C111.746 50.6211 110.036 50.9429 108.196 51.003ZM155.98 44.2368H150.824C150.665 43.9061 150.442 43.4249 150.155 42.7934C149.869 42.1619 149.544 41.4311 149.181 40.6012C148.812 39.7772 148.414 38.875 147.988 37.8947C147.555 36.9204 147.115 35.9069 146.67 34.8544H134.447L130.341 44.2368H125.184L140.606 10C140.797 10.421 141.141 11.1878 141.637 12.3005C142.128 13.4132 142.717 14.7423 143.404 16.288C144.085 17.8397 144.849 19.5538 145.696 21.4303C146.536 23.3128 147.396 25.2164 148.274 27.141C149.146 29.0656 150.006 30.9601 150.852 32.8246C151.693 34.689 152.463 36.4031 153.163 37.9669C153.864 39.5306 154.462 40.8598 154.959 41.9544C155.449 43.055 155.789 43.8158 155.98 44.2368ZM140.081 21.9536L136.261 30.7045H144.903C144.458 29.7121 144.037 28.7558 143.643 27.8356C143.242 26.9215 142.876 26.0794 142.545 25.3096C142.207 24.5458 141.911 23.8782 141.657 23.3068C141.402 22.7354 141.211 22.2844 141.084 21.9536C141.052 21.8934 140.982 21.6829 140.874 21.3221C140.759 20.9612 140.67 20.6304 140.606 20.3297C140.543 20.6304 140.447 20.9612 140.32 21.3221C140.192 21.6829 140.113 21.8934 140.081 21.9536ZM165.482 44.2368H160.277V11.5337H180.999V16.0896H165.482V25.9682H179.041V30.5692H165.482V44.2368ZM199.572 44.5977C197.726 44.5977 196.007 44.312 194.415 43.7407C192.824 43.1693 191.43 42.3634 190.233 41.3229C189.042 40.2884 188.104 39.0404 187.416 37.5789C186.735 36.1235 186.394 34.4935 186.394 32.6892V11.5337H191.646V32.5539C191.646 33.6064 191.844 34.5748 192.238 35.4589C192.639 36.349 193.196 37.1309 193.909 37.8045C194.629 38.4841 195.466 39.0104 196.421 39.3832C197.376 39.7621 198.426 39.9516 199.572 39.9516C200.686 39.9516 201.727 39.7621 202.695 39.3832C203.669 39.0104 204.512 38.4841 205.225 37.8045C205.944 37.1309 206.511 36.349 206.925 35.4589C207.339 34.5748 207.546 33.6064 207.546 32.5539V11.5337H212.798V32.6892C212.798 34.4935 212.454 36.1235 211.766 37.5789C211.085 39.0404 210.146 40.2884 208.949 41.3229C207.759 42.3634 206.358 43.1693 204.748 43.7407C203.143 44.312 201.418 44.5977 199.572 44.5977ZM246.076 11.5337H251.28V45.7254C250.835 45.1841 249.975 44.312 248.702 43.1092C247.429 41.9063 245.965 40.523 244.31 38.9592C242.654 37.3955 240.894 35.7566 239.029 34.0425C237.17 32.3284 235.413 30.6955 233.758 29.1438C232.103 27.5981 230.654 26.2148 229.413 24.9938C228.172 23.7789 227.344 22.9159 226.93 22.4047L226.023 21.2319L226.166 22.6753V44.2368H220.914V10C221.264 10.421 221.844 11.0224 222.652 11.8043C223.467 12.5862 224.422 13.4944 225.517 14.5288C226.618 15.5693 227.828 16.691 229.146 17.8939C230.47 19.0967 231.807 20.3147 233.156 21.5476C234.512 22.7806 235.849 23.9894 237.167 25.1743C238.491 26.3651 239.701 27.4718 240.796 28.4942C241.897 29.5167 242.845 30.4188 243.641 31.2007C244.437 31.9825 244.994 32.569 245.312 32.9599L246.219 34.2229L246.076 32.6892V11.5337ZM274.046 28.5844H285.6V42.2972C284.263 43.0189 282.672 43.5813 280.825 43.9842C278.979 44.3932 277.101 44.5977 275.191 44.5977C272.454 44.5977 269.997 44.1917 267.82 43.3798C265.636 42.5679 263.764 41.4492 262.205 40.0238C260.645 38.5924 259.451 36.8993 258.624 34.9446C257.796 32.99 257.382 30.8548 257.382 28.5393C257.382 25.9832 257.869 23.6436 258.843 21.5205C259.811 19.4035 261.132 17.5781 262.806 16.0445C264.474 14.5108 266.4 13.3139 268.583 12.4539C270.761 11.5998 273.075 11.1728 275.526 11.1728C277.181 11.1728 278.916 11.3743 280.73 11.7772C282.544 12.1862 284.12 12.7666 285.457 13.5184L282.926 17.533C282.449 17.2624 281.901 17.0218 281.284 16.8113C280.66 16.6008 280.014 16.4203 279.345 16.27C278.677 16.1196 278.008 16.0054 277.34 15.9272C276.672 15.855 276.035 15.8189 275.43 15.8189C273.743 15.8189 272.12 16.1347 270.56 16.7662C269 17.3977 267.632 18.2698 266.454 19.3824C265.276 20.4951 264.337 21.8032 263.637 23.3068C262.937 24.8104 262.587 26.4343 262.587 28.1785C262.587 29.7723 262.899 31.2759 263.522 32.6892C264.14 34.1026 265.006 35.3506 266.12 36.4332C267.234 37.5158 268.571 38.3728 270.13 39.0043C271.69 39.6358 273.409 39.9516 275.287 39.9516C276.019 39.9516 276.888 39.8824 277.894 39.7441C278.893 39.6118 279.855 39.3802 280.778 39.0494V32.8246H274.046V28.5844Z" fill="black"/>
<defs>
<clipPath id="clip0_233_147">
<rect width="45" height="34.866" fill="white" transform="translate(7.5 12.5)"/>
</clipPath>
</defs>
</svg>
