<svg width="24" height="24" viewBox="0 0 24 24" fill="none" xmlns="http://www.w3.org/2000/svg">
<g clip-path="url(#clip0_19_7)">
<rect width="24" height="24" rx="4" fill="#228BE6"/>
<path d="M0 0H24V24H0V0Z" fill="#228BE6"/>
<path d="M12 4C7.584 4 4 7.584 4 12C4 16.416 7.584 20 12 20C16.416 20 20 16.416 20 12C20 7.584 16.416 4 12 4ZM12 18.4C8.472 18.4 5.6 15.528 5.6 12C5.6 8.472 8.472 5.6 12 5.6C15.528 5.6 18.4 8.472 18.4 12C18.4 15.528 15.528 18.4 12 18.4ZM7.6 16.4L13.608 13.608L16.4 7.6L10.392 10.392L7.6 16.4ZM12 11.12C12.488 11.12 12.88 11.512 12.88 12C12.88 12.488 12.488 12.88 12 12.88C11.512 12.88 11.12 12.488 11.12 12C11.12 11.512 11.512 11.12 12 11.12Z" fill="#E7F5FF"/>
</g>
<defs>
<clipPath id="clip0_19_7">
<rect width="24" height="24" rx="4" fill="white"/>
</clipPath>
</defs>
</svg>
