<svg width="24" height="24" viewBox="0 0 24 24" fill="none" xmlns="http://www.w3.org/2000/svg">
<g clip-path="url(#clip0_49_15)">
<rect width="24" height="24" rx="4" fill="#228BE6"/>
<path d="M11.2 8H12.8V9.6H11.2V8ZM11.2 11.2H12.8V16H11.2V11.2ZM12 4C7.584 4 4 7.584 4 12C4 16.416 7.584 20 12 20C16.416 20 20 16.416 20 12C20 7.584 16.416 4 12 4ZM12 18.4C8.472 18.4 5.6 15.528 5.6 12C5.6 8.472 8.472 5.6 12 5.6C15.528 5.6 18.4 8.472 18.4 12C18.4 15.528 15.528 18.4 12 18.4Z" fill="#E7F5FF"/>
</g>
<defs>
<clipPath id="clip0_49_15">
<rect width="24" height="24" rx="4" fill="white"/>
</clipPath>
</defs>
</svg>
