<svg width="24" height="24" viewBox="0 0 24 24" fill="none" xmlns="http://www.w3.org/2000/svg">
<g clip-path="url(#clip0_49_11)">
<rect width="24" height="24" rx="4" fill="#228BE6"/>
<path d="M15.5282 11.6055L12.7215 8.79881L13.8394 7.68087L15.5203 9.36174L18.8821 6L20 7.11794L15.5282 11.6055ZM11.1358 8.43409H4V10.0198H11.1358V8.43409ZM19.0644 13.5164L17.9465 12.3984L15.893 14.4519L13.8394 12.3984L12.7215 13.5164L14.775 15.5699L12.7215 17.6234L13.8394 18.7413L15.893 16.6878L17.9465 18.7413L19.0644 17.6234L17.0109 15.5699L19.0644 13.5164ZM11.1358 14.777H4V16.3627H11.1358V14.777Z" fill="#E7F5FF"/>
</g>
<defs>
<clipPath id="clip0_49_11">
<rect width="24" height="24" rx="4" fill="white"/>
</clipPath>
</defs>
</svg>
