<svg width="24" height="24" viewBox="0 0 24 24" fill="none" xmlns="http://www.w3.org/2000/svg">
<g clip-path="url(#clip0_20_13)">
<rect width="24" height="24" rx="4" fill="#228BE6"/>
<path d="M10.7368 11.7368C12.5979 11.7368 14.1053 10.2295 14.1053 8.36842C14.1053 6.50737 12.5979 5 10.7368 5C8.87579 5 7.36842 6.50737 7.36842 8.36842C7.36842 10.2295 8.87579 11.7368 10.7368 11.7368ZM10.7368 6.68421C11.6632 6.68421 12.4211 7.44211 12.4211 8.36842C12.4211 9.29474 11.6632 10.0526 10.7368 10.0526C9.81053 10.0526 9.05263 9.29474 9.05263 8.36842C9.05263 7.44211 9.81053 6.68421 10.7368 6.68421ZM5.68421 16.7895C5.85263 16.2589 7.84842 15.3747 9.86105 15.1558L11.5789 13.4716C11.2505 13.4379 11.0063 13.4211 10.7368 13.4211C8.48842 13.4211 4 14.5495 4 16.7895V18.4737H11.5789L9.89474 16.7895H5.68421ZM18.8211 12.1579L14.5011 16.5116L12.7579 14.76L11.5789 15.9474L14.5011 18.8947L20 13.3453L18.8211 12.1579Z" fill="#E7F5FF"/>
</g>
<defs>
<clipPath id="clip0_20_13">
<rect width="24" height="24" rx="4" fill="white"/>
</clipPath>
</defs>
</svg>
