<svg width="24" height="24" viewBox="0 0 24 24" fill="none" xmlns="http://www.w3.org/2000/svg">
<g clip-path="url(#clip0_49_2)">
<rect width="24" height="24" rx="4" fill="#228BE6"/>
<path d="M15.3962 12.64C16.3926 13.3164 17.0908 14.2327 17.0908 15.4546V17.6364H19.9999V15.4546C19.9999 13.8691 17.4035 12.9309 15.3962 12.64Z" fill="#E7F5FF"/>
<path d="M14.1819 11.8182C15.7891 11.8182 17.091 10.5164 17.091 8.90909C17.091 7.30182 15.7891 6 14.1819 6C13.8401 6 13.5201 6.07273 13.2146 6.17455C13.8182 6.92364 14.1819 7.87636 14.1819 8.90909C14.1819 9.94182 13.8182 10.8945 13.2146 11.6436C13.5201 11.7455 13.8401 11.8182 14.1819 11.8182Z" fill="#E7F5FF"/>
<path d="M9.81827 11.8182C11.4255 11.8182 12.7274 10.5164 12.7274 8.90909C12.7274 7.30182 11.4255 6 9.81827 6C8.211 6 6.90918 7.30182 6.90918 8.90909C6.90918 10.5164 8.211 11.8182 9.81827 11.8182ZM9.81827 7.45455C10.6183 7.45455 11.2728 8.10909 11.2728 8.90909C11.2728 9.70909 10.6183 10.3636 9.81827 10.3636C9.01827 10.3636 8.36373 9.70909 8.36373 8.90909C8.36373 8.10909 9.01827 7.45455 9.81827 7.45455Z" fill="#E7F5FF"/>
<path d="M9.81818 12.5455C7.87636 12.5455 4 13.52 4 15.4546V17.6364H15.6364V15.4546C15.6364 13.52 11.76 12.5455 9.81818 12.5455ZM14.1818 16.1818H5.45455V15.4618C5.6 14.9382 7.85455 14 9.81818 14C11.7818 14 14.0364 14.9382 14.1818 15.4546V16.1818Z" fill="#E7F5FF"/>
</g>
<defs>
<clipPath id="clip0_49_2">
<rect width="24" height="24" rx="4" fill="white"/>
</clipPath>
</defs>
</svg>
